<?xml version="1.0" standalone="no"?><!DOCTYPE svg PUBLIC "-//W3C//DTD SVG 1.1//EN" "http://www.w3.org/Graphics/SVG/1.1/DTD/svg11.dtd"><svg class="icon" width="200px" height="200.00px" viewBox="0 0 1024 1024" version="1.1" xmlns="http://www.w3.org/2000/svg"><path d="M721 848H545v-96h-64v96H305c-17.6 0-32 14.4-32 32s14.4 32 32 32h416c17.6 0 32-14.4 32-32s-14.4-32-32-32z" fill="#1296db" /><path d="M817 112H209c-52.8 0-96 43.2-96 96v448c0 52.8 43.2 96 96 96h608c52.8 0 96-43.2 96-96V208c0-52.8-43.2-96-96-96z m-608 64h608c17.3 0 32 14.7 32 32v352H177V208c0-17.3 14.7-32 32-32z m608 512H209c-17.3 0-32-14.7-32-32v-32h672v32c0 17.3-14.7 32-32 32z" fill="#1296db" /></svg>